<svg width="204" height="204" viewBox="0 0 204 204" fill="none" xmlns="http://www.w3.org/2000/svg">
<circle cx="3" cy="3" r="3" fill="#4599E9"/>
<circle cx="25" cy="3" r="3" fill="#4599E9"/>
<circle cx="47" cy="3" r="3" fill="#4599E9"/>
<circle cx="69" cy="3" r="3" fill="#4599E9"/>
<circle cx="91" cy="3" r="3" fill="#4599E9"/>
<circle cx="113" cy="3" r="3" fill="#4599E9"/>
<circle cx="135" cy="3" r="3" fill="#4599E9"/>
<circle cx="157" cy="3" r="3" fill="#4599E9"/>
<circle cx="179" cy="3" r="3" fill="#4599E9"/>
<circle cx="201" cy="3" r="3" fill="#4599E9"/>
<circle cx="3" cy="25" r="3" fill="#4599E9"/>
<circle cx="25" cy="25" r="3" fill="#4599E9"/>
<circle cx="47" cy="25" r="3" fill="#4599E9"/>
<circle cx="69" cy="25" r="3" fill="#4599E9"/>
<circle cx="91" cy="25" r="3" fill="#4599E9"/>
<circle cx="113" cy="25" r="3" fill="#4599E9"/>
<circle cx="135" cy="25" r="3" fill="#4599E9"/>
<circle cx="157" cy="25" r="3" fill="#4599E9"/>
<circle cx="179" cy="25" r="3" fill="#4599E9"/>
<circle cx="201" cy="25" r="3" fill="#4599E9"/>
<circle cx="3" cy="47" r="3" fill="#4599E9"/>
<circle cx="25" cy="47" r="3" fill="#4599E9"/>
<circle cx="47" cy="47" r="3" fill="#4599E9"/>
<circle cx="69" cy="47" r="3" fill="#4599E9"/>
<circle cx="91" cy="47" r="3" fill="#4599E9"/>
<circle cx="113" cy="47" r="3" fill="#4599E9"/>
<circle cx="135" cy="47" r="3" fill="#4599E9"/>
<circle cx="157" cy="47" r="3" fill="#4599E9"/>
<circle cx="179" cy="47" r="3" fill="#4599E9"/>
<circle cx="201" cy="47" r="3" fill="#4599E9"/>
<circle cx="3" cy="69" r="3" fill="#4599E9"/>
<circle cx="25" cy="69" r="3" fill="#4599E9"/>
<circle cx="47" cy="69" r="3" fill="#4599E9"/>
<circle cx="69" cy="69" r="3" fill="#4599E9"/>
<circle cx="91" cy="69" r="3" fill="#4599E9"/>
<circle cx="113" cy="69" r="3" fill="#4599E9"/>
<circle cx="135" cy="69" r="3" fill="#4599E9"/>
<circle cx="157" cy="69" r="3" fill="#4599E9"/>
<circle cx="179" cy="69" r="3" fill="#4599E9"/>
<circle cx="201" cy="69" r="3" fill="#4599E9"/>
<circle cx="3" cy="91" r="3" fill="#4599E9"/>
<circle cx="25" cy="91" r="3" fill="#4599E9"/>
<circle cx="47" cy="91" r="3" fill="#4599E9"/>
<circle cx="69" cy="91" r="3" fill="#4599E9"/>
<circle cx="91" cy="91" r="3" fill="#4599E9"/>
<circle cx="113" cy="91" r="3" fill="#4599E9"/>
<circle cx="135" cy="91" r="3" fill="#4599E9"/>
<circle cx="157" cy="91" r="3" fill="#4599E9"/>
<circle cx="179" cy="91" r="3" fill="#4599E9"/>
<circle cx="201" cy="91" r="3" fill="#4599E9"/>
<circle cx="3" cy="113" r="3" fill="#4599E9"/>
<circle cx="25" cy="113" r="3" fill="#4599E9"/>
<circle cx="47" cy="113" r="3" fill="#4599E9"/>
<circle cx="69" cy="113" r="3" fill="#4599E9"/>
<circle cx="91" cy="113" r="3" fill="#4599E9"/>
<circle cx="113" cy="113" r="3" fill="#4599E9"/>
<circle cx="135" cy="113" r="3" fill="#4599E9"/>
<circle cx="157" cy="113" r="3" fill="#4599E9"/>
<circle cx="179" cy="113" r="3" fill="#4599E9"/>
<circle cx="201" cy="113" r="3" fill="#4599E9"/>
<circle cx="3" cy="135" r="3" fill="#4599E9"/>
<circle cx="25" cy="135" r="3" fill="#4599E9"/>
<circle cx="47" cy="135" r="3" fill="#4599E9"/>
<circle cx="69" cy="135" r="3" fill="#4599E9"/>
<circle cx="91" cy="135" r="3" fill="#4599E9"/>
<circle cx="113" cy="135" r="3" fill="#4599E9"/>
<circle cx="135" cy="135" r="3" fill="#4599E9"/>
<circle cx="157" cy="135" r="3" fill="#4599E9"/>
<circle cx="179" cy="135" r="3" fill="#4599E9"/>
<circle cx="201" cy="135" r="3" fill="#4599E9"/>
<circle cx="3" cy="157" r="3" fill="#4599E9"/>
<circle cx="25" cy="157" r="3" fill="#4599E9"/>
<circle cx="47" cy="157" r="3" fill="#4599E9"/>
<circle cx="69" cy="157" r="3" fill="#4599E9"/>
<circle cx="91" cy="157" r="3" fill="#4599E9"/>
<circle cx="113" cy="157" r="3" fill="#4599E9"/>
<circle cx="135" cy="157" r="3" fill="#4599E9"/>
<circle cx="157" cy="157" r="3" fill="#4599E9"/>
<circle cx="179" cy="157" r="3" fill="#4599E9"/>
<circle cx="201" cy="157" r="3" fill="#4599E9"/>
<circle cx="3" cy="179" r="3" fill="#4599E9"/>
<circle cx="25" cy="179" r="3" fill="#4599E9"/>
<circle cx="47" cy="179" r="3" fill="#4599E9"/>
<circle cx="69" cy="179" r="3" fill="#4599E9"/>
<circle cx="91" cy="179" r="3" fill="#4599E9"/>
<circle cx="113" cy="179" r="3" fill="#4599E9"/>
<circle cx="135" cy="179" r="3" fill="#4599E9"/>
<circle cx="157" cy="179" r="3" fill="#4599E9"/>
<circle cx="179" cy="179" r="3" fill="#4599E9"/>
<circle cx="201" cy="179" r="3" fill="#4599E9"/>
<circle cx="3" cy="201" r="3" fill="#4599E9"/>
<circle cx="25" cy="201" r="3" fill="#4599E9"/>
<circle cx="47" cy="201" r="3" fill="#4599E9"/>
<circle cx="69" cy="201" r="3" fill="#4599E9"/>
<circle cx="91" cy="201" r="3" fill="#4599E9"/>
<circle cx="113" cy="201" r="3" fill="#4599E9"/>
<circle cx="135" cy="201" r="3" fill="#4599E9"/>
<circle cx="157" cy="201" r="3" fill="#4599E9"/>
<circle cx="179" cy="201" r="3" fill="#4599E9"/>
<circle cx="201" cy="201" r="3" fill="#4599E9"/>
</svg>
