<svg width="1043" height="235" viewBox="0 0 1043 235" fill="none" xmlns="http://www.w3.org/2000/svg">
<path d="M200 149.5L165.5 112.5C186.332 110.99 204.139 96.9358 210.448 77.025L211.308 74.308C214.374 64.6322 214.645 54.2653 212.1 44.4394C205.882 20.4234 184.084 3.67131 159.277 3.91531L49 5L62 20H160.737C181.472 20 198.432 36.5219 198.974 57.2503C199.536 78.7594 182.253 96.5 160.737 96.5H129L200 174V149.5Z" fill="url(#paint0_linear_80_65)"/>
<path d="M82.5 65H62L216 231.5V207.5L82.5 65Z" fill="url(#paint1_linear_80_65)"/>
<path d="M136 162L23 41H0L136 186.5V162Z" fill="url(#paint2_linear_80_65)"/>
<path d="M347.4 99C338.6 99.1333 330.8 101.4 324 105.8C317.333 110.067 312.6 116 309.8 123.6V188H292.2V83.6H308.6V107.8C312.2 100.6 316.933 94.8 322.8 90.4C328.8 85.8667 335.067 83.3333 341.6 82.8C342.933 82.8 344.067 82.8 345 82.8C345.933 82.8 346.733 82.8667 347.4 83V99ZM408.517 190C400.651 190 393.451 188.6 386.917 185.8C380.517 182.867 374.917 178.933 370.117 174C365.451 168.933 361.784 163.133 359.117 156.6C356.584 150.067 355.317 143.133 355.317 135.8C355.317 125.933 357.584 116.933 362.117 108.8C366.651 100.667 372.917 94.1333 380.917 89.2C389.051 84.2667 398.317 81.8 408.717 81.8C419.251 81.8 428.384 84.3333 436.117 89.4C443.984 94.3333 450.051 100.867 454.317 109C458.717 117 460.917 125.667 460.917 135C460.917 136.333 460.851 137.667 460.717 139C460.717 140.2 460.651 141.133 460.517 141.8H373.917C374.451 148.6 376.317 154.667 379.517 160C382.851 165.2 387.117 169.333 392.317 172.4C397.517 175.333 403.117 176.8 409.117 176.8C415.517 176.8 421.517 175.2 427.117 172C432.851 168.8 436.784 164.6 438.917 159.4L454.117 163.6C451.851 168.667 448.451 173.2 443.917 177.2C439.517 181.2 434.251 184.333 428.117 186.6C422.117 188.867 415.584 190 408.517 190ZM373.317 129.6H444.517C443.984 122.8 442.051 116.8 438.717 111.6C435.384 106.4 431.117 102.333 425.917 99.4C420.717 96.4667 414.984 95 408.717 95C402.584 95 396.917 96.4667 391.717 99.4C386.517 102.333 382.251 106.4 378.917 111.6C375.717 116.8 373.851 122.8 373.317 129.6ZM507.747 188L466.747 83.6H485.147L517.947 171.2L550.747 83.6H567.947L526.947 188H507.747ZM628.244 190C620.377 190 613.177 188.6 606.644 185.8C600.244 182.867 594.644 178.933 589.844 174C585.177 168.933 581.51 163.133 578.844 156.6C576.31 150.067 575.044 143.133 575.044 135.8C575.044 125.933 577.31 116.933 581.844 108.8C586.377 100.667 592.644 94.1333 600.644 89.2C608.777 84.2667 618.044 81.8 628.444 81.8C638.977 81.8 648.11 84.3333 655.844 89.4C663.71 94.3333 669.777 100.867 674.044 109C678.444 117 680.644 125.667 680.644 135C680.644 136.333 680.577 137.667 680.444 139C680.444 140.2 680.377 141.133 680.244 141.8H593.644C594.177 148.6 596.044 154.667 599.244 160C602.577 165.2 606.844 169.333 612.044 172.4C617.244 175.333 622.844 176.8 628.844 176.8C635.244 176.8 641.244 175.2 646.844 172C652.577 168.8 656.51 164.6 658.644 159.4L673.844 163.6C671.577 168.667 668.177 173.2 663.644 177.2C659.244 181.2 653.977 184.333 647.844 186.6C641.844 188.867 635.31 190 628.244 190ZM593.044 129.6H664.244C663.71 122.8 661.777 116.8 658.444 111.6C655.11 106.4 650.844 102.333 645.644 99.4C640.444 96.4667 634.71 95 628.444 95C622.31 95 616.644 96.4667 611.444 99.4C606.244 102.333 601.977 106.4 598.644 111.6C595.444 116.8 593.577 122.8 593.044 129.6ZM790.808 188H773.208V129.6C773.208 118.533 771.474 110.467 768.008 105.4C764.674 100.2 759.541 97.6 752.608 97.6C747.808 97.6 743.008 98.8 738.208 101.2C733.541 103.6 729.341 106.867 725.608 111C722.008 115 719.408 119.667 717.808 125V188H700.208V83.6H716.208V106C719.008 101.067 722.608 96.8 727.008 93.2C731.408 89.6 736.408 86.8 742.008 84.8C747.608 82.8 753.474 81.8 759.608 81.8C765.608 81.8 770.608 82.9333 774.608 85.2C778.741 87.3333 781.941 90.4 784.208 94.4C786.608 98.2667 788.274 102.867 789.208 108.2C790.274 113.533 790.808 119.333 790.808 125.6V188ZM817.177 146.2V83.6H834.777V142.8C834.777 153.467 836.643 161.467 840.377 166.8C844.11 172.133 849.643 174.8 856.977 174.8C861.777 174.8 866.377 173.8 870.777 171.8C875.31 169.667 879.377 166.667 882.977 162.8C886.577 158.933 889.377 154.333 891.377 149V83.6H908.977V168C908.977 170.133 909.377 171.733 910.177 172.8C911.11 173.733 912.577 174.267 914.577 174.4V188C912.577 188.267 910.977 188.4 909.777 188.4C908.71 188.533 907.643 188.6 906.577 188.6C903.243 188.6 900.377 187.6 897.977 185.6C895.577 183.467 894.31 180.867 894.177 177.8L893.777 165.6C889.243 173.333 883.11 179.333 875.377 183.6C867.777 187.867 859.443 190 850.377 190C839.443 190 831.177 186.333 825.577 179C819.977 171.533 817.177 160.6 817.177 146.2ZM984.494 190C976.627 190 969.427 188.6 962.894 185.8C956.494 182.867 950.894 178.933 946.094 174C941.427 168.933 937.76 163.133 935.094 156.6C932.56 150.067 931.294 143.133 931.294 135.8C931.294 125.933 933.56 116.933 938.094 108.8C942.627 100.667 948.894 94.1333 956.894 89.2C965.027 84.2667 974.294 81.8 984.694 81.8C995.227 81.8 1004.36 84.3333 1012.09 89.4C1019.96 94.3333 1026.03 100.867 1030.29 109C1034.69 117 1036.89 125.667 1036.89 135C1036.89 136.333 1036.83 137.667 1036.69 139C1036.69 140.2 1036.63 141.133 1036.49 141.8H949.894C950.427 148.6 952.294 154.667 955.494 160C958.827 165.2 963.094 169.333 968.294 172.4C973.494 175.333 979.094 176.8 985.094 176.8C991.494 176.8 997.494 175.2 1003.09 172C1008.83 168.8 1012.76 164.6 1014.89 159.4L1030.09 163.6C1027.83 168.667 1024.43 173.2 1019.89 177.2C1015.49 181.2 1010.23 184.333 1004.09 186.6C998.094 188.867 991.56 190 984.494 190ZM949.294 129.6H1020.49C1019.96 122.8 1018.03 116.8 1014.69 111.6C1011.36 106.4 1007.09 102.333 1001.89 99.4C996.694 96.4667 990.96 95 984.694 95C978.56 95 972.894 96.4667 967.694 99.4C962.494 102.333 958.227 106.4 954.894 111.6C951.694 116.8 949.827 122.8 949.294 129.6Z" fill="white"/>
<defs>
<linearGradient id="paint0_linear_80_65" x1="54" y1="-77.9286" x2="336.299" y2="72.1771" gradientUnits="userSpaceOnUse">
<stop stop-color="#80DE95"/>
<stop offset="1" stop-color="#1A8BF3"/>
</linearGradient>
<linearGradient id="paint1_linear_80_65" x1="54" y1="-77.9286" x2="336.299" y2="72.1771" gradientUnits="userSpaceOnUse">
<stop stop-color="#80DE95"/>
<stop offset="1" stop-color="#1A8BF3"/>
</linearGradient>
<linearGradient id="paint2_linear_80_65" x1="54" y1="-77.9286" x2="336.299" y2="72.1771" gradientUnits="userSpaceOnUse">
<stop stop-color="#80DE95"/>
<stop offset="1" stop-color="#1A8BF3"/>
</linearGradient>
</defs>
</svg>
