<svg width="45" height="46" viewBox="0 0 45 46" fill="none" xmlns="http://www.w3.org/2000/svg">
<path d="M3.70759 45.9649C2.91125 45.8978 2.15841 45.54 1.52067 44.9241C1.28822 44.7005 0.905046 44.2111 0.728458 43.9159C0.421021 43.4056 0.185946 42.7351 0.0783429 42.0777L0.029604 41.769V34.2965V26.8239H8.45973H16.8898V29.3658C16.8898 32.1634 16.8913 32.0172 17.0436 32.4059C17.231 32.8858 17.6408 33.3026 18.0795 33.4632C18.2107 33.5124 18.4094 33.5124 22.5272 33.5124H26.8358L27.027 33.4364C27.4998 33.244 27.9215 32.7337 28.0824 32.1558L28.1386 31.9635V29.3944V26.8248H36.5695H45V34.3528V41.8809L44.9475 42.1582C44.8238 42.8004 44.6401 43.322 44.3645 43.8113C44.0458 44.3735 43.6761 44.8158 43.2037 45.1947C42.6091 45.6724 42.0374 45.9014 41.2781 45.9667C40.895 46.0114 4.12374 46.0114 3.71732 45.9649H3.70759ZM19.2923 28.736V26.8248H22.5088H25.7256V28.736V30.6476H22.5088H19.2923V28.736ZM0.0213549 17.8977C0.0213549 11.3372 0.0213551 11.7884 0.152579 11.173C0.351288 10.2369 0.899423 9.27613 1.5934 8.63832C2.08718 8.18523 2.58207 7.91106 3.20519 7.74512L3.48638 7.66908H8.18341H12.8801V5.00334V2.33761L12.9325 2.11397C13.1762 1.08793 13.8931 0.27882 14.7487 0.0592098C14.9361 0.0100099 15.2713 0.0100098 22.529 0.0100098H30.1126L30.3375 0.0860457C31.3146 0.408081 32.0018 1.34556 32.1222 2.51875C32.1222 2.66635 32.1597 3.68613 32.1597 5.21311V7.67221H36.6996C39.8351 7.67221 41.3134 7.67221 41.4784 7.71694C42.3126 7.82428 43.1048 8.26977 43.7331 8.98719C44.3863 9.73324 44.7589 10.5182 44.9381 11.5241L44.9906 11.8283V17.9018V23.9752H22.4953H0V17.9295L0.0213549 17.8977ZM28.9308 5.72971V3.80421H22.5088H16.0871V5.72971V7.65477H22.5088H28.9308V5.72971Z" fill="white"/>
</svg>
