<svg width="45" height="51" viewBox="0 0 45 51" fill="none" xmlns="http://www.w3.org/2000/svg">
<path d="M38.25 0.0100098H6.75C3.00937 0.0100098 0 2.60616 0 5.77924V44.2408C0 47.4139 3.00937 50.01 6.75 50.01H38.25C41.9625 50.01 45 47.4139 45 44.2408V5.77924C45 2.60616 41.9906 0.0100098 38.25 0.0100098ZM14.625 44.2408H7.875V38.4715H14.625V44.2408ZM14.625 33.6639H7.875V27.8946H14.625V33.6639ZM14.625 23.0869H7.875V17.3177H14.625V23.0869ZM25.875 44.2408H19.125V38.4715H25.875V44.2408ZM25.875 33.6639H19.125V27.8946H25.875V33.6639ZM25.875 23.0869H19.125V17.3177H25.875V23.0869ZM37.125 44.2408H30.375V27.8946H37.125V44.2408ZM37.125 23.0869H30.375V17.3177H37.125V23.0869ZM37.125 11.5485H7.875V5.77924H37.125V11.5485Z" fill="white"/>
</svg>
