<svg width="47" height="47" viewBox="0 0 47 47" fill="none" xmlns="http://www.w3.org/2000/svg">
<path d="M38.0348 6.5573C37.8622 6.5573 37.6045 6.48089 37.4342 6.40241C32.7121 4.24421 28.5055 3.32104 23.5257 3.32104C18.5459 3.32104 13.8239 4.39911 9.61727 6.48089C9.01665 6.78861 8.24345 6.5573 7.90057 6.01827C7.55769 5.47924 7.81542 4.78531 8.41604 4.47759C13.0484 2.24297 18.2007 1.01001 23.5234 1.01001C28.8461 1.01001 33.483 2.08808 38.6354 4.40117C39.236 4.70889 39.4938 5.40282 39.1509 5.94186C38.9783 6.326 38.548 6.5573 38.0348 6.5573ZM2.23041 18.4243C1.97267 18.4243 1.71494 18.3479 1.54465 18.193C0.944037 17.8068 0.858893 17.1149 1.20177 16.6523C3.68937 13.4925 6.86733 11.0265 10.5585 9.33302C18.4585 5.71055 28.5032 5.63413 36.401 9.33302C40.1795 11.0286 43.27 13.4945 45.7599 16.6544C46.1903 17.117 46.0177 17.8873 45.4171 18.1951C44.8164 18.5813 44.0432 18.4264 43.7004 17.8873C41.4682 15.0373 38.6354 12.8027 35.1997 11.2599C27.9878 7.94723 18.8014 7.94723 11.6745 11.2599C8.24115 12.8006 5.40837 15.1116 3.1739 17.8853C3.00361 18.193 2.66073 18.4243 2.23041 18.4243ZM17.8579 45.5495C17.515 45.5495 17.1721 45.473 16.9995 45.2417C14.8525 43.3148 13.6513 42.0055 11.9346 39.3082C10.2179 36.5346 9.27209 33.1434 9.27209 29.523C9.35723 22.8171 15.7108 17.3462 23.5234 17.3462C31.336 17.3462 37.6896 22.8171 37.6896 29.4445C37.6896 30.06 37.1742 30.6011 36.401 30.6011C35.7152 30.6011 35.1123 30.1385 35.1123 29.4445C35.1974 24.0501 29.9599 19.6593 23.5211 19.6593C17.0824 19.6593 11.8448 24.0521 11.8448 29.523C11.8448 32.7593 12.618 35.7642 14.1621 38.1538C15.7937 40.7746 16.8246 41.8526 18.7991 43.6246C19.3145 44.0872 19.3145 44.7812 18.7991 45.2438C18.5436 45.3946 18.2007 45.5495 17.8579 45.5495ZM35.8878 41.388C32.8824 41.388 30.3074 40.694 28.1604 39.3847C24.4692 37.15 22.2371 33.4512 22.2371 29.521C22.2371 28.9055 22.7525 28.3644 23.5257 28.3644C24.2989 28.3644 24.8144 28.827 24.8144 29.521C24.8144 32.6808 26.6185 35.6858 29.7091 37.5342C31.5132 38.6122 33.5728 39.1533 36.0627 39.1533C36.6633 39.1533 37.6942 39.0769 38.6377 38.922C39.3235 38.8456 39.9264 39.2298 40.0967 39.8473C40.1818 40.4627 39.7538 41.0038 39.0657 41.1566C37.4319 41.3095 36.2307 41.388 35.8878 41.388ZM30.8205 46.01C30.7354 46.01 30.5628 46.01 30.4777 45.9336C26.5288 44.9319 23.8663 43.6226 21.1187 41.2331C17.5978 38.0732 15.7085 33.9117 15.7085 29.521C15.7085 25.8985 19.1419 22.8935 23.436 22.8935C27.73 22.8935 31.1634 25.8221 31.1634 29.521C31.1634 31.9105 33.4807 33.9138 36.401 33.9138C39.3212 33.9138 41.6385 31.9869 41.6385 29.521C41.6385 21.0451 33.4807 14.1864 23.5211 14.1864C16.3943 14.1864 9.8704 17.7304 6.95017 23.2797C6.00668 25.1281 5.49121 27.2099 5.49121 29.5974C5.49121 31.3694 5.6638 34.143 7.20791 37.6891C7.46564 38.3045 7.12276 38.922 6.52215 39.1533C5.83639 39.3847 5.14833 39.0769 4.8906 38.5379C3.68937 35.6093 3.08646 32.6808 3.08646 29.6759C3.08646 26.9786 3.68707 24.5127 4.80315 22.433C8.1514 16.1918 15.536 12.1067 23.6063 12.1067C35.0248 12.1067 44.2987 19.9671 44.2987 29.6759C44.2987 33.2983 40.8653 36.3033 36.5712 36.3033C32.2772 36.3033 28.8438 33.2983 28.8438 29.6759C28.8438 27.2863 26.5265 25.283 23.6063 25.283C20.686 25.283 18.3687 27.2099 18.3687 29.6759C18.3687 33.5296 20.0003 37.15 23.0908 39.8473C25.4956 41.927 27.7277 43.16 31.2486 44.0088C31.9343 44.1637 32.2795 44.7791 32.1069 45.3966C31.8515 45.6259 31.336 46.01 30.8205 46.01Z" fill="white" stroke="white"/>
</svg>
