<svg width="39" height="39" viewBox="0 0 39 39" fill="none" xmlns="http://www.w3.org/2000/svg">
<path d="M38.9886 0H0.0114258C0.0051155 0 0 0.0051155 0 0.0114258V38.9886C0 38.9949 0.0051155 39 0.0114258 39H38.9886C38.9949 39 39 38.9949 39 38.9886V0.0114258C39 0.0051155 38.9949 0 38.9886 0Z" fill="#3B5998"/>
<path d="M22.5094 33.15V12.7432C22.5094 11.31 22.9031 10.3545 24.8063 10.3545H27.3V6.05473C26.8406 5.98648 25.3969 5.84998 23.6906 5.84998C20.1469 5.84998 17.7188 8.10223 17.7188 12.2655V33.15M27.1031 15.8145H13.65V20.7285H26.5125" fill="white"/>
</svg>
