<svg width="31" height="31" viewBox="0 0 31 31" fill="none" xmlns="http://www.w3.org/2000/svg">
<g clip-path="url(#clip0_388_74)">
<path d="M29.1886 0H1.94237C1.49403 0 1.06405 0.178103 0.747021 0.495129C0.429995 0.812154 0.251892 1.24213 0.251892 1.69047L0.251892 28.9367C0.251892 29.385 0.429995 29.815 0.747021 30.132C1.06405 30.449 1.49403 30.6271 1.94237 30.6271H16.6123V18.7831H12.6344V14.1471H16.6123V10.7374C16.6123 6.78164 19.0284 4.62757 22.5583 4.62757C24.2481 4.62757 25.7011 4.75319 26.1235 4.80703V8.94109H23.6888C21.7687 8.94109 21.3966 9.85333 21.3966 11.1927V14.1471H25.9871L25.3889 18.7831H21.3966V30.6271H29.1874C29.4095 30.6273 29.6294 30.5837 29.8347 30.4988C30.0399 30.4139 30.2264 30.2894 30.3835 30.1324C30.5406 29.9755 30.6652 29.789 30.7502 29.5839C30.8353 29.3787 30.879 29.1588 30.879 28.9367V1.69047C30.879 1.24213 30.7009 0.812154 30.3839 0.495129C30.0669 0.178103 29.6369 0 29.1886 0Z" fill="#4267B2"/>
<path d="M21.3978 30.6264V18.7823H25.3907L25.9889 14.1464H21.3978V11.1937C21.3978 9.85439 21.7687 8.94216 23.6901 8.94216H26.1235V4.8069C25.7 4.75067 24.247 4.62744 22.5583 4.62744C19.029 4.62744 16.6123 6.78091 16.6123 10.7373V14.147H12.6344V18.7823H16.6123V30.6264H21.3978Z" fill="white"/>
</g>
<defs>
<clipPath id="clip0_388_74">
<rect x="0.251892" width="30.6271" height="30.6271" rx="4.17833" fill="white"/>
</clipPath>
</defs>
</svg>
