<svg width="47" height="46" viewBox="0 0 47 46" fill="none" xmlns="http://www.w3.org/2000/svg">
<g clip-path="url(#clip0_341_83)">
<path d="M23.5 45.51C36.0645 45.51 46.25 35.3245 46.25 22.76C46.25 10.1955 36.0645 0.0100098 23.5 0.0100098C10.9355 0.0100098 0.75 10.1955 0.75 22.76C0.75 35.3245 10.9355 45.51 23.5 45.51Z" fill="white"/>
<path d="M22.4165 30.7076V24.1005C20.3559 23.5118 18.8448 22.621 17.8829 21.427C16.921 20.234 16.44 18.7855 16.44 17.0824C16.44 15.3584 16.9839 13.9102 18.072 12.7375C19.1601 11.5656 20.6083 10.8902 22.4165 10.7117V9.15015H24.7033V10.7117C26.3747 10.9115 27.7045 11.4817 28.6927 12.4226C29.6809 13.3632 30.3118 14.6222 30.5852 16.1991L26.5954 16.7195C26.3533 15.4796 25.7227 14.6382 24.7033 14.1964V20.3623C27.2264 21.0459 28.9454 21.9314 29.8597 23.0198C30.7743 24.1083 31.2314 25.5031 31.2314 27.2062C31.2314 29.1094 30.6559 30.7122 29.5049 32.0157C28.3539 33.3192 26.7529 34.1183 24.7029 34.4126V37.3612H22.4162V34.4915C20.5972 34.2708 19.1206 33.5929 17.9849 32.4572C16.8495 31.3218 16.1244 29.7186 15.8087 27.6477L19.9243 27.2062C20.0925 28.0472 20.4078 28.7727 20.8706 29.3824C21.3334 29.9931 21.8488 30.4346 22.4165 30.7076ZM22.4165 14.1502C21.7962 14.3606 21.3021 14.7179 20.9342 15.2226C20.566 15.727 20.3822 16.2844 20.3822 16.894C20.3822 17.4511 20.5503 17.9686 20.8866 18.4471C21.2229 18.9259 21.7326 19.3123 22.4162 19.6063L22.4165 14.1502ZM24.7029 30.9283C25.4913 30.7818 26.1322 30.4164 26.6267 29.8327C27.1208 29.2491 27.3678 28.5634 27.3678 27.7749C27.3678 27.0711 27.1603 26.464 26.7451 25.9535C26.3299 25.4434 25.6492 25.0524 24.7029 24.7783V30.9283Z" fill="#193652"/>
</g>
<defs>
<clipPath id="clip0_341_83">
<rect width="45.5" height="45.5" fill="white" transform="translate(0.75 0.0100098)"/>
</clipPath>
</defs>
</svg>
