<svg width="26" height="26" viewBox="0 0 26 26" fill="none" xmlns="http://www.w3.org/2000/svg">
<g clip-path="url(#clip0_356_27)">
<mask id="mask0_356_27" style="mask-type:luminance" maskUnits="userSpaceOnUse" x="0" y="0" width="26" height="26">
<path d="M25.5199 10.6364H13.4063V15.6591H20.379C19.729 18.85 17.0108 20.6818 13.4063 20.6818C9.15171 20.6818 5.72443 17.2546 5.72443 13C5.72443 8.74546 9.15171 5.31818 13.4063 5.31818C15.2381 5.31818 16.8926 5.96818 18.1926 7.03182L21.9744 3.25C19.6699 1.24091 16.7153 0 13.4063 0C6.19716 0 0.40625 5.79091 0.40625 13C0.40625 20.2091 6.19716 26 13.4063 26C19.9063 26 25.8154 21.2727 25.8154 13C25.8154 12.2318 25.6972 11.4045 25.5199 10.6364Z" fill="white"/>
</mask>
<g mask="url(#mask0_356_27)">
<path d="M-0.775574 20.682V5.31836L9.26988 13.0002L-0.775574 20.682Z" fill="#FBBC05"/>
</g>
<mask id="mask1_356_27" style="mask-type:luminance" maskUnits="userSpaceOnUse" x="0" y="0" width="26" height="26">
<path d="M25.5199 10.6364H13.4063V15.6591H20.379C19.729 18.85 17.0108 20.6818 13.4063 20.6818C9.15171 20.6818 5.72443 17.2546 5.72443 13C5.72443 8.74546 9.15171 5.31818 13.4063 5.31818C15.2381 5.31818 16.8926 5.96818 18.1926 7.03182L21.9744 3.25C19.6699 1.24091 16.7153 0 13.4063 0C6.19716 0 0.40625 5.79091 0.40625 13C0.40625 20.2091 6.19716 26 13.4063 26C19.9063 26 25.8154 21.2727 25.8154 13C25.8154 12.2318 25.6972 11.4045 25.5199 10.6364Z" fill="white"/>
</mask>
<g mask="url(#mask1_356_27)">
<path d="M-0.775574 5.31836L9.26988 13.0002L13.4062 9.39564L27.5881 7.09109V-1.18164H-0.775574V5.31836Z" fill="#EA4335"/>
</g>
<mask id="mask2_356_27" style="mask-type:luminance" maskUnits="userSpaceOnUse" x="0" y="0" width="26" height="26">
<path d="M25.5199 10.6364H13.4063V15.6591H20.379C19.729 18.85 17.0108 20.6818 13.4063 20.6818C9.15171 20.6818 5.72443 17.2546 5.72443 13C5.72443 8.74546 9.15171 5.31818 13.4063 5.31818C15.2381 5.31818 16.8926 5.96818 18.1926 7.03182L21.9744 3.25C19.6699 1.24091 16.7153 0 13.4063 0C6.19716 0 0.40625 5.79091 0.40625 13C0.40625 20.2091 6.19716 26 13.4063 26C19.9063 26 25.8154 21.2727 25.8154 13C25.8154 12.2318 25.6972 11.4045 25.5199 10.6364Z" fill="white"/>
</mask>
<g mask="url(#mask2_356_27)">
<path d="M-0.775574 20.682L16.9517 7.09109L21.6199 7.682L27.5881 -1.18164V27.182H-0.775574V20.682Z" fill="#34A853"/>
</g>
<mask id="mask3_356_27" style="mask-type:luminance" maskUnits="userSpaceOnUse" x="0" y="0" width="26" height="26">
<path d="M25.5199 10.6364H13.4063V15.6591H20.379C19.729 18.85 17.0108 20.6818 13.4063 20.6818C9.15171 20.6818 5.72443 17.2546 5.72443 13C5.72443 8.74546 9.15171 5.31818 13.4063 5.31818C15.2381 5.31818 16.8926 5.96818 18.1926 7.03182L21.9744 3.25C19.6699 1.24091 16.7153 0 13.4063 0C6.19716 0 0.40625 5.79091 0.40625 13C0.40625 20.2091 6.19716 26 13.4063 26C19.9063 26 25.8154 21.2727 25.8154 13C25.8154 12.2318 25.6972 11.4045 25.5199 10.6364Z" fill="white"/>
</mask>
<g mask="url(#mask3_356_27)">
<path d="M27.5881 27.182L9.26989 13.0002L6.90625 11.2275L27.5881 5.31836V27.182Z" fill="#4285F4"/>
</g>
</g>
<defs>
<clipPath id="clip0_356_27">
<rect width="26" height="26" fill="white"/>
</clipPath>
</defs>
</svg>
