<svg width="31" height="31" viewBox="0 0 31 31" fill="none" xmlns="http://www.w3.org/2000/svg">
<g clip-path="url(#clip0_388_50)">
<path d="M8.14284 30.5163C6.32173 30.4334 5.33245 30.1304 4.67445 29.8737C3.80257 29.5343 3.18098 29.1302 2.52661 28.4767C1.87225 27.8233 1.46726 27.2017 1.12961 26.3298C0.872963 25.6718 0.5699 24.6825 0.487081 22.8614C0.396071 20.8929 0.377869 20.3022 0.377869 15.3149C0.377869 10.3275 0.397891 9.73778 0.486171 7.76741C0.56899 5.9463 0.873873 4.95884 1.1287 4.29902C1.46817 3.42715 1.87316 2.80555 2.5257 2.15028C3.17916 1.49683 3.80075 1.09092 4.67354 0.753274C5.33154 0.496626 6.32082 0.193562 8.14193 0.110743C10.1114 0.0206434 10.703 0.00244141 15.6885 0.00244141C20.6758 0.00244141 21.2656 0.0224636 23.2359 0.110743C25.057 0.193562 26.0445 0.498446 26.7043 0.753274C27.5762 1.09092 28.1978 1.49683 28.8522 2.15028C29.5065 2.80373 29.9097 3.42624 30.2492 4.29811C30.5058 4.95611 30.8089 5.94539 30.8917 7.7665C30.9818 9.73687 31 10.3266 31 15.314C31 20.2995 30.9818 20.8911 30.8917 22.8614C30.8089 24.6825 30.504 25.6718 30.2492 26.3298C29.9097 27.2017 29.5056 27.8233 28.8522 28.4767C28.1987 29.1302 27.5762 29.5343 26.7043 29.8737C26.0463 30.1304 25.057 30.4334 23.2359 30.5163C21.2674 30.6064 20.6758 30.6246 15.6885 30.6246C10.703 30.6246 10.1114 30.6073 8.14284 30.5163Z" fill="url(#paint0_radial_388_50)"/>
<path d="M8.14284 30.5163C6.32173 30.4334 5.33245 30.1304 4.67445 29.8737C3.80257 29.5343 3.18098 29.1302 2.52661 28.4767C1.87225 27.8233 1.46726 27.2017 1.12961 26.3298C0.872963 25.6718 0.5699 24.6825 0.487081 22.8614C0.396071 20.8929 0.377869 20.3022 0.377869 15.3149C0.377869 10.3275 0.397891 9.73778 0.486171 7.76741C0.56899 5.9463 0.873873 4.95884 1.1287 4.29902C1.46817 3.42715 1.87316 2.80555 2.5257 2.15028C3.17916 1.49683 3.80075 1.09092 4.67354 0.753274C5.33154 0.496626 6.32082 0.193562 8.14193 0.110743C10.1114 0.0206434 10.703 0.00244141 15.6885 0.00244141C20.6758 0.00244141 21.2656 0.0224636 23.2359 0.110743C25.057 0.193562 26.0445 0.498446 26.7043 0.753274C27.5762 1.09092 28.1978 1.49683 28.8522 2.15028C29.5065 2.80373 29.9097 3.42624 30.2492 4.29811C30.5058 4.95611 30.8089 5.94539 30.8917 7.7665C30.9818 9.73687 31 10.3266 31 15.314C31 20.2995 30.9818 20.8911 30.8917 22.8614C30.8089 24.6825 30.504 25.6718 30.2492 26.3298C29.9097 27.2017 29.5056 27.8233 28.8522 28.4767C28.1987 29.1302 27.5762 29.5343 26.7043 29.8737C26.0463 30.1304 25.057 30.4334 23.2359 30.5163C21.2674 30.6064 20.6758 30.6246 15.6885 30.6246C10.703 30.6246 10.1114 30.6073 8.14284 30.5163Z" fill="url(#paint1_radial_388_50)"/>
<path d="M11.9294 15.3792C11.9294 13.2849 13.6267 11.5868 15.7209 11.5868C17.8151 11.5868 19.5133 13.2849 19.5133 15.3792C19.5133 17.4734 17.8151 19.1716 15.7209 19.1716C13.6267 19.1716 11.9294 17.4734 11.9294 15.3792ZM9.87932 15.3792C9.87932 18.6055 12.4946 21.2207 15.7209 21.2207C18.9472 21.2207 21.5624 18.6055 21.5624 15.3792C21.5624 12.1529 18.9472 9.53761 15.7209 9.53761C12.4946 9.53761 9.87941 12.1527 9.87941 15.3792M20.4286 9.30599C20.4285 9.57599 20.5085 9.83996 20.6584 10.0645C20.8083 10.2891 21.0215 10.4641 21.2709 10.5676C21.5203 10.671 21.7948 10.6981 22.0596 10.6456C22.3244 10.593 22.5677 10.4631 22.7587 10.2722C22.9497 10.0814 23.0798 9.83819 23.1326 9.5734C23.1854 9.30861 23.1585 9.03411 23.0552 8.78462C22.952 8.53513 22.7771 8.32185 22.5527 8.17176C22.3282 8.02166 22.0643 7.94149 21.7943 7.94139H21.7938C21.4319 7.94155 21.0848 8.08536 20.8289 8.34122C20.5729 8.59708 20.429 8.94408 20.4286 9.30599ZM11.1249 24.6393C10.0157 24.5887 9.41289 24.404 9.01226 24.2479C8.48113 24.0411 8.10216 23.7949 7.70372 23.397C7.30528 22.9991 7.05864 22.6205 6.85278 22.0893C6.69661 21.6889 6.51186 21.0859 6.46144 19.9767C6.40628 18.7776 6.39527 18.4174 6.39527 15.3794C6.39527 12.3414 6.40719 11.9821 6.46144 10.782C6.51195 9.67285 6.69806 9.071 6.85278 8.66937C7.05955 8.13824 7.30583 7.75927 7.70372 7.36083C8.10162 6.96239 8.48022 6.71575 9.01226 6.50989C9.41271 6.35372 10.0157 6.16897 11.1249 6.11855C12.324 6.0634 12.6842 6.05238 15.7209 6.05238C18.7575 6.05238 19.1181 6.06412 20.3182 6.11873C21.4274 6.16924 22.0292 6.35536 22.4309 6.51007C22.962 6.71594 23.341 6.96312 23.7394 7.36102C24.1378 7.75891 24.3836 8.13842 24.5903 8.66956C24.7465 9.07 24.9313 9.67303 24.9817 10.7822C25.0368 11.9823 25.0479 12.3415 25.0479 15.3795C25.0479 18.4175 25.0368 18.7768 24.9817 19.9769C24.9312 21.086 24.7455 21.6889 24.5903 22.0895C24.3836 22.6207 24.1373 22.9996 23.7394 23.3972C23.3415 23.7947 22.962 24.0413 22.4309 24.2481C22.0304 24.4043 21.4274 24.589 20.3182 24.6394C19.1191 24.6946 18.7589 24.7056 15.7209 24.7056C12.6829 24.7056 12.3237 24.6946 11.1249 24.6394M11.0307 4.07182C9.81961 4.12698 8.99206 4.31901 8.26935 4.60023C7.52134 4.89064 6.88727 5.28025 6.25411 5.91241C5.62096 6.54456 5.23235 7.17872 4.94193 7.92764C4.66071 8.65081 4.46868 9.47791 4.41353 10.689C4.35747 11.902 4.34464 12.2898 4.34464 15.3792C4.34464 18.4686 4.35747 18.8564 4.41353 20.0694C4.46868 21.2805 4.66071 22.1075 4.94193 22.8307C5.23235 23.5787 5.62105 24.2141 6.25411 24.8459C6.88718 25.4778 7.52043 25.8669 8.26935 26.1581C8.99342 26.4393 9.81961 26.6314 11.0307 26.6865C12.2443 26.7417 12.6315 26.7554 15.7209 26.7554C18.8103 26.7554 19.1981 26.7426 20.4111 26.6865C21.6222 26.6314 22.4492 26.4393 23.1724 26.1581C23.9204 25.8669 24.5545 25.4781 25.1876 24.8459C25.8208 24.2138 26.2086 23.5787 26.4998 22.8307C26.781 22.1075 26.974 21.2804 27.0282 20.0694C27.0834 18.8555 27.0962 18.4686 27.0962 15.3792C27.0962 12.2898 27.0834 11.902 27.0282 10.689C26.9731 9.47782 26.781 8.65035 26.4998 7.92764C26.2086 7.17963 25.8198 6.54557 25.1876 5.91241C24.5555 5.27925 23.9204 4.89064 23.1733 4.60023C22.4492 4.31901 21.6222 4.12607 20.412 4.07182C19.1988 4.0164 18.8112 4.00293 15.7222 4.00293C12.6333 4.00293 12.2448 4.01576 11.0311 4.07182" fill="white"/>
</g>
<defs>
<radialGradient id="paint0_radial_388_50" cx="0" cy="0" r="1" gradientUnits="userSpaceOnUse" gradientTransform="translate(2.3597 29.9537) scale(38.8787)">
<stop offset="0.09" stop-color="#FA8F21"/>
<stop offset="0.78" stop-color="#D82D7E"/>
</radialGradient>
<radialGradient id="paint1_radial_388_50" cx="0" cy="0" r="1" gradientUnits="userSpaceOnUse" gradientTransform="translate(21.5887 28.9705) scale(34.2137)">
<stop offset="0.64" stop-color="#8C3AAA" stop-opacity="0"/>
<stop offset="1" stop-color="#8C3AAA"/>
</radialGradient>
<clipPath id="clip0_388_50">
<rect width="30.6221" height="30.6221" fill="white" transform="translate(0.377869 0.00244141)"/>
</clipPath>
</defs>
</svg>
