<svg width="40" height="40" viewBox="0 0 40 40" fill="none" xmlns="http://www.w3.org/2000/svg">
<g clip-path="url(#clip0_442_69)">
<path d="M34.0783 34.0867H28.155V24.805C28.155 22.5917 28.11 19.7433 25.0683 19.7433C21.98 19.7433 21.5083 22.1517 21.5083 24.6417V34.0867H15.585V15H21.275V17.6017H21.3517C22.1467 16.1017 24.08 14.5183 26.9683 14.5183C32.97 14.5183 34.08 18.4683 34.08 23.61V34.0867H34.0783ZM8.895 12.3883C7.98238 12.3888 7.10707 12.0262 6.46206 11.3806C5.81706 10.735 5.45534 9.85928 5.45667 8.94667C5.45759 7.04681 6.99847 5.50741 8.89833 5.50833C10.7982 5.50926 12.3376 7.05014 12.3367 8.95C12.3357 10.8499 10.7949 12.3893 8.895 12.3883ZM11.865 34.0867H5.925V15H11.865V34.0867ZM2.95167 0C2.36215 0 1.37826 0 0 0C0 1.43507 0 2.39562 0 2.88167V37.1183C0 37.6382 0 38.5987 0 40C1.41235 40 2.39624 40 2.95167 40H37.0367C37.5925 40 38.5803 40 40 40C40 38.5978 40 37.6372 40 37.1183V2.88167C40 2.35349 40 1.39294 40 0C38.5702 0 37.5824 0 37.0367 0H2.95167Z" fill="#0078BA"/>
</g>
<defs>
<clipPath id="clip0_442_69">
<rect width="40" height="40" fill="white"/>
</clipPath>
</defs>
</svg>
