<svg width="31" height="31" viewBox="0 0 31 31" fill="none" xmlns="http://www.w3.org/2000/svg">
<g clip-path="url(#clip0_388_65)">
<path d="M30.7442 0H0.134949C0.129994 0 0.125977 0.00401726 0.125977 0.0089728V30.6182C0.125977 30.6231 0.129994 30.6271 0.134949 30.6271H30.7442C30.7491 30.6271 30.7531 30.6231 30.7531 30.6182V0.0089728C30.7531 0.00401726 30.7491 0 30.7442 0Z" fill="#0077B5"/>
<path d="M8.62015 10.4681C9.84252 10.4681 10.8334 9.47716 10.8334 8.25479C10.8334 7.03243 9.84252 6.0415 8.62015 6.0415C7.39778 6.0415 6.40686 7.03243 6.40686 8.25479C6.40686 9.47716 7.39778 10.4681 8.62015 10.4681Z" fill="white"/>
<path d="M14.7217 11.6045V23.4486V11.6045ZM8.62024 11.6045V23.4486V11.6045Z" fill="white"/>
<path d="M14.7217 11.6045V23.4486M8.62024 11.6045V23.4486" stroke="white" stroke-width="3.67131"/>
<path d="M16.6359 16.8685C16.6359 15.6722 17.4135 14.4758 18.7893 14.4758C20.225 14.4758 20.7634 15.5525 20.7634 17.1676V23.4486H24.7114V16.6891C24.7114 13.0402 22.7972 11.3652 20.1652 11.3652C18.1313 11.3652 17.1144 12.5018 16.6359 13.2794" fill="white"/>
</g>
<defs>
<clipPath id="clip0_388_65">
<rect x="0.125977" width="30.6271" height="30.6271" rx="5.5711" fill="white"/>
</clipPath>
</defs>
</svg>
