<svg width="24" height="24" viewBox="0 0 24 24" fill="none" xmlns="http://www.w3.org/2000/svg">
<path fill-rule="evenodd" clip-rule="evenodd" d="M2.30768 8.98688C2.30768 4.03168 6.61092 0 11.901 0C17.191 0 21.4943 4.03168 21.4943 8.98688C21.4943 16.4329 13.6492 22.7196 12.4162 23.7075C12.3395 23.769 12.2884 23.8099 12.2664 23.8294C12.1633 23.9196 12.0322 23.9649 11.901 23.9649C11.7698 23.9649 11.6386 23.9196 11.5357 23.8294C11.5135 23.8099 11.4625 23.769 11.3859 23.7077C10.1533 22.7199 2.30768 16.4331 2.30768 8.98688ZM11.9009 14.1937C14.5204 14.1937 16.6439 12.0384 16.6439 9.3795C16.6439 6.7207 14.5204 4.56531 11.9009 4.56531C9.28146 4.56531 7.15794 6.7207 7.15794 9.3795C7.15794 12.0384 9.28146 14.1937 11.9009 14.1937Z" fill="white"/>
</svg>
