<svg width="47" height="48" viewBox="0 0 47 48" fill="none" xmlns="http://www.w3.org/2000/svg">
<path d="M0.583931 46.7418C0.788089 42.8542 1.70612 39.2856 3.32871 36.0725C5.13689 32.4922 7.37366 29.9619 9.96651 28.5637C11.6267 27.6685 13.5592 27.5753 15.7014 28.287C16.6736 28.61 17.2735 28.9297 19.0166 30.0536C23.7163 33.084 26.7626 34.2288 29.2182 33.8873C30.1472 33.7581 30.8666 33.506 32.1867 32.847C33.3641 32.2593 33.7289 31.9952 35.124 30.7204C35.6367 30.2518 36.262 29.7564 36.5134 29.6196C36.922 29.3972 37.0357 29.3769 37.5835 29.428C39.146 29.5739 40.5544 30.7476 42.2748 33.3373C43.7958 35.627 44.5835 37.4335 45.2529 40.1676C45.6366 41.7348 45.9565 43.5351 46.1846 45.411C46.2907 46.2841 46.3961 47.1351 46.4188 47.302L46.4603 47.6055H23.4996H0.53891L0.583931 46.7418ZM25.12 27.6676C20.8812 27.0042 17.1076 24.0552 15.0832 19.8236C14.0374 17.6378 13.6024 15.6646 13.5902 13.0524C13.5664 7.97262 16.2176 3.36206 20.3846 1.23554C22.1675 0.325732 23.9624 -0.0710324 25.927 0.0103725C27.842 0.0898053 28.9513 0.374001 30.7363 1.24259C32.0312 1.87261 32.716 2.32609 33.747 3.23637C37.1849 6.27147 39.1332 11.1295 38.7368 15.6781C38.501 18.3837 37.7846 20.4973 36.3994 22.5748C33.8994 26.3241 29.4299 28.3421 25.12 27.6676Z" fill="white"/>
</svg>
