<svg width="15" height="15" viewBox="0 0 15 15" fill="none" xmlns="http://www.w3.org/2000/svg">
<path d="M2.85718 10.6237L2.8816 10.7611L3.44088 13.9042C3.4826 14.1378 3.63441 14.3336 3.84569 14.428C4.05698 14.522 4.30066 14.5019 4.49419 14.3737C5.27319 13.8572 6.29055 13.1719 6.26303 13.1318L2.85718 10.6237ZM0.864629 6.16152C0.560575 6.28152 0.344852 6.56257 0.301796 6.89427C0.259184 7.22643 0.396342 7.55539 0.659559 7.75204L3.54119 9.90741L13.7765 1.6304L4.72634 10.7948L8.66573 13.7414C8.91652 13.9289 9.23966 13.985 9.5375 13.8919C9.83489 13.7988 10.0719 13.5671 10.1785 13.2678L14.3926 1.41186C14.4352 1.2914 14.4055 1.15681 14.3167 1.06692C14.2279 0.977036 14.097 0.948751 13.9802 0.994837L0.864629 6.16152Z" fill="white"/>
</svg>
