<svg width="56" height="53" viewBox="0 0 56 53" fill="none" xmlns="http://www.w3.org/2000/svg">
<path d="M26.0979 1.8541C26.6966 0.0114832 29.3034 0.0114799 29.9021 1.8541L34.9599 17.4205C35.2277 18.2445 35.9956 18.8024 36.862 18.8024H53.2295C55.1669 18.8024 55.9725 21.2817 54.4051 22.4205L41.1635 32.041C40.4625 32.5503 40.1692 33.453 40.437 34.2771L45.4948 49.8435C46.0935 51.6861 43.9845 53.2183 42.4171 52.0795L29.1756 42.459C28.4746 41.9497 27.5254 41.9497 26.8244 42.459L13.5829 52.0795C12.0155 53.2183 9.9065 51.6861 10.5052 49.8435L15.563 34.2771C15.8308 33.453 15.5375 32.5503 14.8365 32.041L1.59493 22.4205C0.0275064 21.2817 0.833055 18.8024 2.7705 18.8024H19.138C20.0044 18.8024 20.7723 18.2445 21.0401 17.4205L26.0979 1.8541Z" fill="#F7D88B"/>
</svg>
