<svg width="45" height="46" viewBox="0 0 45 46" fill="none" xmlns="http://www.w3.org/2000/svg">
<path d="M18.0001 29.5432C18.0001 28.1178 18.0901 28.7805 12.0202 13.5888C10.7802 10.4879 7.23021 10.4754 5.98022 13.5888C-0.139731 28.918 0.000267965 28.1678 0.000267965 29.5432C0.000267965 33.4318 4.03024 36.5702 9.0002 36.5702C13.9702 36.5702 18.0001 33.4318 18.0001 29.5432ZM9.0002 15.4893L14.0602 28.1428H3.94024L9.0002 15.4893ZM44.9999 29.5432C44.9999 28.1178 45.0899 28.7805 39.02 13.5888C37.78 10.4879 34.23 10.4754 32.98 13.5888C26.8601 28.918 27.0001 28.1678 27.0001 29.5432C27.0001 33.4318 31.03 36.5702 36 36.5702C40.97 36.5702 44.9999 33.4318 44.9999 29.5432ZM30.94 28.1428L36 15.4893L41.06 28.1428H30.94ZM37.12 39.396H24.7501V13.4888C26.4001 12.5885 27.6401 10.7255 28.0101 8.44985H37.12C37.74 8.44985 38.24 7.82468 38.24 7.04947V4.23618C38.24 3.46097 37.74 2.83579 37.12 2.83579H26.9701C25.9501 1.12282 24.3301 0.0100098 22.5001 0.0100098C20.6701 0.0100098 19.0501 1.12282 18.0301 2.82329H7.88021C7.26021 2.82329 6.76022 3.44846 6.76022 4.22368V7.03696C6.76022 7.81218 7.26021 8.43735 7.88021 8.43735H16.9901C17.3601 10.7005 18.6001 12.5635 20.2501 13.4763V39.396H7.88021C7.26021 39.396 6.76022 40.0211 6.76022 40.7963V43.6096C6.76022 44.3848 7.26021 45.01 7.88021 45.01H37.13C37.75 45.01 38.25 44.3848 38.25 43.6096V40.7963C38.25 40.0211 37.75 39.396 37.12 39.396Z" fill="white"/>
</svg>
