<svg width="40" height="40" viewBox="0 0 40 40" fill="none" xmlns="http://www.w3.org/2000/svg">
<rect width="40" height="40" rx="10" fill="#418CC0" fill-opacity="0.38"/>
<path d="M29.2655 30.8475V28.5876C29.2655 27.3889 28.7893 26.2392 27.9417 25.3916C27.0941 24.544 25.9444 24.0678 24.7457 24.0678H15.7062C14.5075 24.0678 13.3579 24.544 12.5102 25.3916C11.6626 26.2392 11.1864 27.3889 11.1864 28.5876V30.8475" stroke="white" stroke-width="2.25988" stroke-linecap="round" stroke-linejoin="round"/>
<path d="M19.774 19.548C22.2702 19.548 24.2938 17.5244 24.2938 15.0282C24.2938 12.5321 22.2702 10.5085 19.774 10.5085C17.2778 10.5085 15.2542 12.5321 15.2542 15.0282C15.2542 17.5244 17.2778 19.548 19.774 19.548Z" stroke="white" stroke-width="2.25988" stroke-linecap="round" stroke-linejoin="round"/>
</svg>
