<svg width="30" height="30" viewBox="0 0 30 30" fill="none" xmlns="http://www.w3.org/2000/svg">
<g clip-path="url(#clip0_257_16)">
<path d="M21.25 26.25V23.75C21.25 22.4239 20.7232 21.1521 19.7855 20.2145C18.8479 19.2768 17.5761 18.75 16.25 18.75H6.25C4.92392 18.75 3.65215 19.2768 2.71447 20.2145C1.77678 21.1521 1.25 22.4239 1.25 23.75V26.25" stroke="white" stroke-width="2.83333" stroke-linecap="round" stroke-linejoin="round"/>
<path d="M11.25 13.75C14.0114 13.75 16.25 11.5114 16.25 8.75C16.25 5.98858 14.0114 3.75 11.25 3.75C8.48858 3.75 6.25 5.98858 6.25 8.75C6.25 11.5114 8.48858 13.75 11.25 13.75Z" stroke="white" stroke-width="2.83333" stroke-linecap="round" stroke-linejoin="round"/>
<path d="M28.75 26.25V23.75C28.7492 22.6421 28.3804 21.5659 27.7017 20.6904C27.023 19.8148 26.0727 19.1894 25 18.9125" stroke="white" stroke-width="2.83333" stroke-linecap="round" stroke-linejoin="round"/>
<path d="M20 3.91248C21.0755 4.18785 22.0288 4.81335 22.7095 5.69036C23.3903 6.56738 23.7598 7.64601 23.7598 8.75623C23.7598 9.86644 23.3903 10.9451 22.7095 11.8221C22.0288 12.6991 21.0755 13.3246 20 13.6" stroke="white" stroke-width="2.83333" stroke-linecap="round" stroke-linejoin="round"/>
</g>
<defs>
<clipPath id="clip0_257_16">
<rect width="30" height="30" fill="white"/>
</clipPath>
</defs>
</svg>
