<svg width="38" height="38" viewBox="0 0 38 38" fill="none" xmlns="http://www.w3.org/2000/svg">
<path d="M0.625 37.9583L3.2639 28.3781C1.6376 25.5682 0.778425 22.3917 0.778425 19.1237C0.778425 8.92243 9.12473 0.625 19.3633 0.625C24.3342 0.625 28.9983 2.54919 32.5169 6.05142C36.0252 9.54346 37.9583 14.1961 37.9583 19.1339C37.9583 29.3351 29.612 37.6325 19.3735 37.6325H19.3633C16.2539 37.6325 13.1956 36.8588 10.4851 35.3826L0.625 37.9583ZM10.9351 32.0432L11.4977 32.3792C13.8707 33.7842 16.5914 34.5172 19.3633 34.5274H19.3735C27.8937 34.5274 34.8182 27.6349 34.8182 19.1542C34.8182 15.0411 33.2124 11.1826 30.2973 8.28103C27.3823 5.37948 23.5057 3.7709 19.3735 3.7709C10.8533 3.7709 3.91852 10.6634 3.91852 19.144C3.91852 22.0456 4.73678 24.8759 6.28126 27.3295L6.64948 27.9098L5.08454 33.5806L10.9351 32.0432Z" fill="white"/>
<path d="M1.26941 37.3169L3.81626 28.0625C2.2411 25.3544 1.42283 22.2797 1.42283 19.1339C1.42283 9.28893 9.47251 1.27657 19.3633 1.27657C24.1604 1.27657 28.6711 3.13967 32.0566 6.50954C35.4422 9.8896 37.314 14.3692 37.3037 19.144C37.3037 28.989 29.2541 37.0013 19.3633 37.0013H19.3531C16.3459 37.0013 13.4002 36.2479 10.7817 34.8328L1.26941 37.3169Z" fill="url(#paint0_linear_88_18)"/>
<path d="M0.625 37.9583L3.2639 28.3781C1.6376 25.5682 0.778425 22.3917 0.778425 19.1237C0.778425 8.92243 9.12473 0.625 19.3633 0.625C24.3342 0.625 28.9983 2.54919 32.5169 6.05142C36.0252 9.54346 37.9583 14.1961 37.9583 19.1339C37.9583 29.3351 29.612 37.6325 19.3735 37.6325H19.3633C16.2539 37.6325 13.1956 36.8588 10.4851 35.3826L0.625 37.9583ZM10.9351 32.0432L11.4977 32.3792C13.8707 33.7842 16.5914 34.5172 19.3633 34.5274H19.3735C27.8937 34.5274 34.8182 27.6349 34.8182 19.1542C34.8182 15.0411 33.2124 11.1826 30.2973 8.28103C27.3823 5.37948 23.5057 3.7709 19.3735 3.7709C10.8533 3.7709 3.91852 10.6634 3.91852 19.144C3.91852 22.0456 4.73678 24.8759 6.28126 27.3295L6.64948 27.9098L5.08454 33.5806L10.9351 32.0432Z" fill="url(#paint1_linear_88_18)"/>
<path d="M14.7196 11.3964C14.3719 10.6226 14.0036 10.6124 13.6763 10.6023C13.4104 10.5921 13.0933 10.5921 12.7865 10.5921C12.4796 10.5921 11.9784 10.7041 11.5488 11.1724C11.1193 11.6305 9.92255 12.7504 9.92255 15.0309C9.92255 17.3013 11.5898 19.5004 11.8148 19.816C12.05 20.1214 15.0265 24.937 19.752 26.7899C23.6796 28.3272 24.4774 28.0218 25.3264 27.9505C26.1753 27.869 28.0778 26.8306 28.4665 25.7514C28.8552 24.6722 28.8552 23.7458 28.7324 23.5523C28.6199 23.3589 28.3028 23.2469 27.8425 23.0128C27.3823 22.7786 25.0911 21.6587 24.6718 21.506C24.2422 21.3533 23.9353 21.2718 23.6285 21.7402C23.3216 22.1983 22.4318 23.2469 22.1556 23.5523C21.8897 23.8578 21.6135 23.8985 21.1532 23.6643C20.693 23.4302 19.1894 22.9415 17.4199 21.3736C16.0391 20.1519 15.1083 18.635 14.8321 18.1768C14.5662 17.7187 14.8015 17.4642 15.0367 17.23C15.2413 17.0264 15.497 16.6904 15.7322 16.4155C15.9675 16.1407 16.0391 15.9574 16.1925 15.6418C16.3459 15.3364 16.2743 15.0615 16.1516 14.8273C16.0391 14.5932 15.139 12.3126 14.7196 11.3964Z" fill="white"/>
<defs>
<linearGradient id="paint0_linear_88_18" x1="19.2866" y1="37.3169" x2="19.2866" y2="1.27657" gradientUnits="userSpaceOnUse">
<stop stop-color="#20B038"/>
<stop offset="1" stop-color="#60D66A"/>
</linearGradient>
<linearGradient id="paint1_linear_88_18" x1="19.2917" y1="37.9583" x2="19.2917" y2="0.625" gradientUnits="userSpaceOnUse">
<stop stop-color="#F9F9F9"/>
<stop offset="1" stop-color="white"/>
</linearGradient>
</defs>
</svg>
