<svg width="24" height="24" viewBox="0 0 24 24" fill="none" xmlns="http://www.w3.org/2000/svg">
<path d="M11.4133 0.0138795C5.0233 0.315677 -0.0193292 5.59432 5.57019e-05 11.9399C0.00595798 13.8726 0.476346 15.6968 1.30614 17.3086L0.0321131 23.4429C-0.0368046 23.7747 0.264906 24.0652 0.597227 23.9872L6.65707 22.5631C8.21394 23.3323 9.96263 23.7766 11.8133 23.8047C18.3446 23.9036 23.7904 18.7596 23.994 12.2836C24.2122 5.34171 18.4362 -0.317879 11.4133 0.0138795ZM18.644 18.4934C16.8693 20.2537 14.5098 21.2231 12 21.2231C10.5305 21.2231 9.12352 20.8961 7.81814 20.2511L6.97423 19.8341L3.25892 20.7072L4.04097 16.9416L3.62521 16.134C2.94755 14.8176 2.60394 13.394 2.60394 11.903C2.60394 9.4135 3.58129 7.07305 5.35596 5.31266C7.11478 3.56806 9.51284 2.58283 12.0002 2.58283C14.5099 2.58289 16.8694 3.55233 18.6441 5.31261C20.4187 7.07294 21.3961 9.41339 21.3961 11.9028C21.3961 14.3701 20.4028 16.7488 18.644 18.4934Z" fill="white"/>
<path d="M17.3976 14.6582L15.1657 13.9691C14.8723 13.8786 14.5563 13.9681 14.3425 14.2023L13.7967 14.8002C13.5666 15.0523 13.2173 15.1333 12.9128 15.0008C11.857 14.5414 9.63602 12.4183 9.06885 11.3563C8.90522 11.0499 8.93227 10.667 9.13319 10.3874L9.60969 9.72464C9.79638 9.46496 9.83577 9.1162 9.71231 8.81602L8.77331 6.53262C8.54839 5.98572 7.89837 5.82651 7.47371 6.21266C6.8508 6.77911 6.11171 7.63988 6.02187 8.59349C5.86346 10.2748 6.5341 12.3942 9.07012 14.9391C11.9999 17.8791 14.3461 18.2675 15.8737 17.8697C16.7401 17.644 17.4325 16.7395 17.8695 15.9988C18.1674 15.4938 17.9322 14.8232 17.3976 14.6582Z" fill="white"/>
</svg>
