<svg width="31" height="31" viewBox="0 0 31 31" fill="none" xmlns="http://www.w3.org/2000/svg">
<g clip-path="url(#clip0_388_70)">
<path d="M30.6182 0H0.0089728C0.00401726 0 0 0.00401726 0 0.0089728V30.6182C0 30.6231 0.00401726 30.6271 0.0089728 30.6271H30.6182C30.6231 30.6271 30.6271 30.6231 30.6271 30.6182V0.0089728C30.6271 0.00401726 30.6231 0 30.6182 0Z" fill="#ED1D24"/>
<path d="M25.5426 10.109C25.3033 9.21173 24.5256 8.4939 23.6284 8.25463C21.5945 7.71626 9.33171 7.65644 6.99878 8.25463C6.1015 8.4939 5.32386 9.21173 5.08458 10.109C4.54622 12.3821 4.4864 18.1845 5.08458 20.5174C5.32386 21.4147 6.1015 22.1326 6.99878 22.3718C9.15225 22.97 21.4151 22.97 23.6284 22.3718C24.5256 22.1326 25.3033 21.4147 25.5426 20.5174C26.0809 18.364 26.0809 12.3223 25.5426 10.109Z" fill="white"/>
<path d="M13.1602 12.1431V18.4838L18.7233 15.3135" fill="#ED1D24"/>
</g>
<defs>
<clipPath id="clip0_388_70">
<rect width="30.6271" height="30.6271" rx="6.96388" fill="white"/>
</clipPath>
</defs>
</svg>
